<?xml version="1.0" encoding="UTF-8"?>
<svg width="170.079pt" version="1.1" xmlns="http://www.w3.org/2000/svg" height="56.6929pt" viewBox="0 0 170.079 56.6929" xmlns:xlink="http://www.w3.org/1999/xlink">
 <defs>
  <clipPath id="Clip0">
   <path d="M0 0 L125.012 0 L125.012 32.3561 L0 32.3561 L0 0 Z" transform="translate(22.5336, 12.1684)"/>
  </clipPath>
 </defs>
 <g id="Bakgrund">
  <g id="Group3" clip-path="url(#Clip0)">
   <path style="fill:#161413; fill-rule:evenodd;stroke:none;" id="Text5+0" d="M6.7967 6.94068 C6.7967 6.94068 7.7327 6.94068 8.3087 7.39462 C8.3087 7.39462 8.88471 7.84799 9.10071 8.51737 C9.10071 8.51737 9.31671 9.18674 9.1654 9.97874 C9.1654 9.97874 9.01465 10.7707 8.51064 11.4407 C8.51064 11.4407 8.00664 12.1101 7.14264 12.564 C7.14264 12.564 6.27863 13.0174 5.0687 13.0174 C5.0687 13.0174 3.72995 13.0174 2.76469 12.6141 C2.76469 12.6141 1.8 12.2107 1.18069 11.556 C1.18069 11.556 0.561938 10.9007 0.28125 10.0654 C0.28125 10.0654 0 9.23005 0.0292501 8.35199 C0.0292501 8.35199 0.0579376 7.47337 0.381938 6.63805 C0.381938 6.63805 0.705938 5.80274 1.30331 5.14799 C1.30331 5.14799 1.90069 4.49268 2.75738 4.08936 C2.75738 4.08936 3.61464 3.68606 4.7087 3.68606 C4.7087 3.68606 5.73132 3.68606 6.6527 3.8953 C6.6527 3.8953 7.57464 4.10399 8.49601 4.40662 C8.49601 4.40662 9.41796 4.70868 10.3899 5.06136 C10.3899 5.06136 11.3619 5.41405 12.4847 5.71668 C12.4847 5.71668 12.4706 4.47805 12.7946 3.42731 C12.7946 3.42731 13.1186 2.376 13.7593 1.61269 C13.7593 1.61269 14.4 0.849374 15.3501 0.424686 C15.3501 0.424686 16.3007 0 17.5539 0 C17.5539 0 18.9939 0 19.9367 0.496686 C19.9367 0.496686 20.88 0.993374 21.3407 1.74206 C21.3407 1.74206 21.8019 2.49075 21.78 3.35475 C21.78 3.35475 21.7586 4.21874 21.2546 4.96799 C21.2546 4.96799 20.7506 5.71668 19.7786 6.21337 C19.7786 6.21337 18.8066 6.71005 17.3807 6.71005 C17.3807 6.71005 16.1567 6.71005 15.1701 6.60205 C15.1701 6.60205 14.184 6.49405 13.3346 6.30674 C13.3346 6.30674 13.5939 8.04937 14.4073 9.9073 C14.4073 9.9073 15.2207 11.7647 16.4593 13.464 C16.4593 13.464 17.0353 14.2701 17.5106 15.1487 C17.5106 15.1487 17.9859 16.0267 18.3459 16.956 C18.3459 16.956 18.7059 17.8847 18.9219 18.8353 C18.9219 18.8353 19.1379 19.7854 19.2099 20.7214 C19.2099 20.7214 19.7139 20.3467 20.2826 19.6487 C20.2826 19.6487 20.8513 18.9501 21.4993 17.8414 L21.6287 17.928 C21.6287 17.928 20.9379 19.0654 20.3473 19.7854 C20.3473 19.7854 19.7567 20.5054 19.224 20.8941 C19.224 20.8941 19.2819 21.9887 19.1087 23.0254 C19.1087 23.0254 18.936 24.0621 18.4894 24.984 C18.4894 24.984 18.0433 25.9054 17.3087 26.676 C17.3087 26.676 16.5746 27.4461 15.516 28.0001 C15.516 28.0001 14.4579 28.5548 13.0539 28.8641 C13.0539 28.8641 11.6499 29.1741 9.87865 29.1741 C9.87865 29.1741 7.60332 29.1741 5.90401 28.5188 C5.90401 28.5188 4.2047 27.864 3.06001 26.7913 C3.06001 26.7913 1.91531 25.7181 1.28869 24.3433 C1.28869 24.3433 0.662626 22.968 0.540563 21.5353 C0.540563 21.5353 0.417938 20.1021 0.763313 18.7273 C0.763313 18.7273 1.10869 17.352 1.90069 16.2793 C1.90069 16.2793 2.69269 15.2061 3.90939 14.5513 C3.90939 14.5513 5.12663 13.896 6.7247 13.896 C6.7247 13.896 7.9487 13.896 8.85602 14.2346 C8.85602 14.2346 9.76333 14.5727 10.368 15.1273 C10.368 15.1273 10.9727 15.6814 11.2821 16.3941 C11.2821 16.3941 11.592 17.1067 11.6207 17.8414 C11.6207 17.8414 12.3553 18.0287 12.9746 18.36 C12.9746 18.36 13.5939 18.6908 14.1407 19.08 C14.1407 19.08 14.688 19.4687 15.1774 19.8647 C15.1774 19.8647 15.6673 20.2607 16.1207 20.5774 C16.1207 20.5774 16.5746 20.8941 17.0207 21.0814 C17.0207 21.0814 17.4673 21.2687 17.9426 21.24 C17.9426 21.24 17.9426 19.4827 17.3306 17.6107 C17.3306 17.6107 16.7186 15.7387 15.4513 13.9247 C15.4513 13.9247 14.04 11.88 13.3054 9.87861 C13.3054 9.87861 12.5713 7.87668 12.4993 6.09074 C12.4993 6.09074 11.3473 5.77405 10.4254 5.38536 C10.4254 5.38536 9.50402 4.99668 8.61807 4.6513 C8.61807 4.6513 7.7327 4.30536 6.7967 4.0753 C6.7967 4.0753 5.8607 3.84469 4.69464 3.84469 C4.69464 3.84469 3.65795 3.84469 2.87269 4.22661 C2.87269 4.22661 2.088 4.60799 1.55531 5.24136 C1.55531 5.24136 1.02262 5.87474 0.756563 6.68137 C0.756563 6.68137 0.489938 7.48799 0.497251 8.3233 C0.497251 8.3233 0.504001 9.15805 0.792001 9.96468 C0.792001 9.96468 1.08 10.7707 1.656 11.4047 C1.656 11.4047 2.232 12.0381 3.10332 12.42 C3.10332 12.42 3.97464 12.8014 5.1407 12.8014 C5.1407 12.8014 6.16332 12.8014 6.92664 12.3767 C6.92664 12.3767 7.68995 11.952 8.15064 11.304 C8.15064 11.304 8.61132 10.656 8.77671 9.91461 C8.77671 9.91461 8.94264 9.17268 8.78402 8.52468 C8.78402 8.52468 8.62595 7.87668 8.13601 7.45199 C8.13601 7.45199 7.64664 7.02674 6.81132 7.02674 L6.7967 6.94068 L6.7967 6.94068 Z M9.87865 28.8574 C9.87865 28.8574 11.8226 28.8574 13.3054 28.2814 C13.3054 28.2814 14.7887 27.7054 15.804 26.6974 C15.804 26.6974 16.8193 25.6894 17.352 24.3433 C17.352 24.3433 17.8847 22.9967 17.928 21.4414 C17.928 21.4414 17.4386 21.4847 16.9774 21.2974 C16.9774 21.2974 16.5167 21.1101 16.056 20.8007 C16.056 20.8007 15.5953 20.4908 15.1127 20.0948 C15.1127 20.0948 14.6306 19.6988 14.0906 19.3027 C14.0906 19.3027 13.5506 18.9067 12.9386 18.5687 C12.9386 18.5687 12.3266 18.2301 11.6207 18.0287 C11.6207 18.0287 11.6207 18.7487 11.3687 19.4254 C11.3687 19.4254 11.1167 20.1021 10.6414 20.628 C10.6414 20.628 10.1666 21.1534 9.46802 21.4701 C9.46802 21.4701 8.76996 21.7867 7.8767 21.7867 C7.8767 21.7867 7.05601 21.7867 6.52332 21.4774 C6.52332 21.4774 5.99064 21.168 5.7887 20.7073 C5.7887 20.7073 5.58732 20.2461 5.73863 19.7134 C5.73863 19.7134 5.88995 19.1807 6.40801 18.72 C6.40801 18.72 6.92664 18.2587 7.84801 17.9494 C7.84801 17.9494 8.76996 17.64 10.1087 17.64 C10.1087 17.64 10.4113 17.64 10.6847 17.6687 C10.6847 17.6687 10.9586 17.6974 11.2466 17.7548 C11.2466 17.7548 11.2179 17.0781 10.944 16.4301 C10.944 16.4301 10.6706 15.7821 10.1233 15.2781 C10.1233 15.2781 9.57602 14.7741 8.74071 14.4647 C8.74071 14.4647 7.90595 14.1548 6.75395 14.1548 C6.75395 14.1548 5.3567 14.1548 4.30539 14.7887 C4.30539 14.7887 3.25463 15.4221 2.56331 16.452 C2.56331 16.452 1.872 17.4814 1.57669 18.8061 C1.57669 18.8061 1.28194 20.1308 1.404 21.5061 C1.404 21.5061 1.52663 22.8814 2.088 24.2061 C2.088 24.2061 2.64994 25.5308 3.69395 26.5607 C3.69395 26.5607 4.73795 27.5901 6.27132 28.2234 C6.27132 28.2234 7.8047 28.8574 9.87865 28.8574 L9.87865 28.8574 Z M17.5539 0.244688 C17.5539 0.244688 16.2579 0.244688 15.372 0.683999 C15.372 0.683999 14.4866 1.12275 13.9753 1.88606 C13.9753 1.88606 13.464 2.64938 13.2981 3.68606 C13.2981 3.68606 13.1327 4.72274 13.2767 5.90399 C13.2767 5.90399 14.1699 6.10537 15.1706 6.22068 C15.1706 6.22068 16.1713 6.33599 17.3379 6.33599 C17.3379 6.33599 18.6193 6.33599 19.476 5.88261 C19.476 5.88261 20.3327 5.42868 20.7647 4.75199 C20.7647 4.75199 21.1967 4.07474 21.2113 3.29006 C21.2113 3.29006 21.2259 2.50538 20.8153 1.82869 C20.8153 1.82869 20.4047 1.152 19.5913 0.698624 C19.5913 0.698624 18.7779 0.244688 17.5539 0.244688 L17.5539 0.244688 Z M7.90595 21.384 C7.90595 21.384 8.68332 21.384 9.29533 21.0887 C9.29533 21.0887 9.90733 20.7934 10.332 20.3113 C10.332 20.3113 10.7567 19.8287 10.9941 19.2094 C10.9941 19.2094 11.232 18.5901 11.2466 17.928 C11.2466 17.928 10.9727 17.8847 10.6993 17.856 C10.6993 17.856 10.4259 17.8268 10.1379 17.8268 C10.1379 17.8268 8.94264 17.8268 8.13601 18.0934 C8.13601 18.0934 7.32995 18.36 6.86195 18.7487 C6.86195 18.7487 6.39395 19.1374 6.2567 19.6054 C6.2567 19.6054 6.12001 20.0734 6.27132 20.4621 C6.27132 20.4621 6.42264 20.8508 6.84001 21.1174 C6.84001 21.1174 7.25795 21.384 7.90595 21.384 Z" transform="translate(22.5336, 12.9373)"/>
   <path style="fill:#161413; fill-rule:evenodd;stroke:none;" id="Text5+1" d="M5.41463 2.26125 C5.41463 2.26125 5.184 2.67863 4.91063 3.06731 C4.91063 3.06731 4.66594 3.39862 4.32 3.75131 C4.32 3.75131 3.97463 4.104 3.55669 4.30594 C3.55669 4.30594 3.096 5.09794 2.484 5.59462 C2.484 5.59462 1.872 6.09131 1.26731 6.09131 C1.26731 6.09131 0.863999 6.09131 0.583312 5.85394 C0.583312 5.85394 0.302625 5.616 0.151312 5.19862 C0.151312 5.19862 0 4.78125 0.00731249 4.23394 C0.00731249 4.23394 0.014625 3.68662 0.201938 3.05325 C0.201938 3.05325 0.374625 2.41931 0.691311 1.86525 C0.691311 1.86525 1.008 1.31062 1.38938 0.89325 C1.38938 0.89325 1.77131 0.475312 2.18869 0.237937 C2.18869 0.237937 2.60663 0 3.00994 0 C3.00994 0 3.41269 0 3.70069 0.237937 C3.70069 0.237937 3.98869 0.475312 4.13269 0.89325 C4.13269 0.89325 4.27669 1.31062 4.26938 1.86525 C4.26938 1.86525 4.26262 2.41931 4.08994 3.05325 C4.08994 3.05325 4.00331 3.312 3.90938 3.54994 C3.90938 3.54994 3.816 3.78731 3.70069 4.032 C3.70069 4.032 4.06069 3.80194 4.356 3.48525 C4.356 3.48525 4.65131 3.168 4.85269 2.88 C4.85269 2.88 5.09794 2.53462 5.27063 2.18925 L5.41463 2.26125 L5.41463 2.26125 Z M1.728 5.616 C1.728 5.616 2.11669 5.616 2.53406 5.28525 C2.53406 5.28525 2.952 4.95394 3.29794 4.40662 L3.15394 4.44994 C3.15394 4.44994 2.664 4.57931 2.376 4.39256 C2.376 4.39256 2.088 4.20525 2.016 3.90262 C2.016 3.90262 1.944 3.6 2.07337 3.276 C2.07337 3.276 2.20331 2.952 2.54869 2.808 C2.54869 2.808 2.63531 2.72194 2.77931 2.72194 C2.77931 2.72194 2.93794 2.72194 3.06 2.84456 C3.06 2.84456 3.18263 2.96663 3.18263 3.12525 C3.18263 3.12525 3.18263 3.28331 3.06 3.40594 C3.06 3.40594 2.93794 3.528 2.77931 3.528 C2.77931 3.528 2.56331 3.528 2.43394 3.32662 C2.43394 3.32662 2.304 3.49931 2.28938 3.70125 C2.28938 3.70125 2.27531 3.90262 2.35462 4.06125 C2.35462 4.06125 2.43394 4.21931 2.62069 4.29863 C2.62069 4.29863 2.808 4.37794 3.096 4.30594 C3.096 4.30594 3.168 4.27725 3.26138 4.24856 C3.26138 4.24856 3.35531 4.21931 3.42731 4.176 C3.42731 4.176 3.72994 3.64331 3.96 2.89462 C3.96 2.89462 4.104 2.376 4.11806 1.908 C4.11806 1.908 4.13269 1.44 4.032 1.08731 C4.032 1.08731 3.93131 0.734625 3.72938 0.518625 C3.72938 0.518625 3.528 0.302625 3.25463 0.302625 C3.25463 0.302625 2.98069 0.302625 2.67806 0.49725 C2.67806 0.49725 2.376 0.691312 2.10206 1.02994 C2.10206 1.02994 1.82869 1.368 1.59131 1.82194 C1.59131 1.82194 1.35394 2.27531 1.20994 2.79394 C1.20994 2.79394 1.03669 3.41325 0.986062 3.93188 C0.986062 3.93188 0.935999 4.44994 1.01531 4.82456 C1.01531 4.82456 1.09463 5.19862 1.27463 5.40731 C1.27463 5.40731 1.45463 5.616 1.728 5.616 Z" transform="translate(43.4712, 28.532)"/>
   <path style="fill:#161413; fill-rule:evenodd;stroke:none;" id="Text5+2" d="M11.7787 0.158625 C11.7787 0.158625 12.1247 0.302625 12.1607 0.777937 C12.1607 0.777937 12.1967 1.25269 12.0021 1.98 C12.0021 1.98 11.808 2.70731 11.412 3.62925 C11.412 3.62925 11.016 4.55062 10.4827 5.59462 C10.4827 5.59462 9.95005 6.63862 9.33074 7.74731 C9.33074 7.74731 8.71199 8.856 8.05668 9.95794 C8.05668 9.95794 7.40136 11.0593 6.75337 12.1033 C6.75337 12.1033 6.10537 13.1473 5.52936 14.0546 C5.52936 14.0546 5.25599 14.832 5.00399 15.588 C5.00399 15.588 4.752 16.344 4.49269 17.0927 C4.49269 17.0927 4.392 17.5247 4.37738 17.8847 C4.37738 17.8847 4.36275 18.2447 4.44206 18.4466 C4.44206 18.4466 4.52137 18.648 4.71544 18.6553 C4.71544 18.6553 4.91005 18.6626 5.21943 18.3892 C5.21943 18.3892 5.52936 18.1153 5.96137 17.5106 C5.96137 17.5106 6.39337 16.9054 6.96937 15.8974 L7.08468 16.0414 C7.08468 16.0414 6.49405 17.1647 5.97543 17.8346 C5.97543 17.8346 5.45737 18.504 5.06868 18.756 C5.06868 18.756 4.68 19.008 4.44206 18.8426 C4.44206 18.8426 4.20469 18.6767 4.16138 18.1153 C4.16138 18.1153 3.51338 20.0593 2.97338 21.7586 C2.97338 21.7586 2.43337 23.4574 2.03006 24.7393 C2.03006 24.7393 1.55475 26.2367 1.16606 27.504 L0 27.504 C0 27.504 2.49075 19.5266 4.76606 13.3633 C4.76606 13.3633 5.41405 11.6207 6.07612 9.91463 C6.07612 9.91463 6.73874 8.208 7.39405 6.68869 C7.39405 6.68869 8.04937 5.16937 8.67543 3.90262 C8.67543 3.90262 9.30205 2.63531 9.86343 1.74994 C9.86343 1.74994 10.4254 0.864 10.9148 0.432 C10.9148 0.432 11.4047 0 11.7787 0.158625 L11.7787 0.158625 Z M11.7214 0.475312 C11.7214 0.475312 11.4767 0.316687 11.1021 0.741937 C11.1021 0.741937 10.728 1.16662 10.26 2.03062 C10.26 2.03062 9.79199 2.89462 9.25199 4.13325 C9.25199 4.13325 8.71199 5.37131 8.12868 6.86194 C8.12868 6.86194 7.54536 8.352 6.94068 10.0299 C6.94068 10.0299 6.33599 11.7073 5.74537 13.4207 C5.74537 13.4207 6.49405 12.24 7.30743 10.8793 C7.30743 10.8793 8.12137 9.51862 8.89143 8.14331 C8.89143 8.14331 9.66205 6.768 10.3241 5.47931 C10.3241 5.47931 10.9868 4.19062 11.4041 3.14663 C11.4041 3.14663 11.8221 2.10262 11.9301 1.38994 C11.9301 1.38994 12.0381 0.676687 11.7214 0.475312 Z" transform="translate(44.6668, 15.1546)"/>
   <path style="fill:#161413; fill-rule:evenodd;stroke:none;" id="Text5+3" d="M0.057375 7.18537 L1.584 4.57931 L2.76469 4.57931 C2.76469 4.57931 2.24606 5.88937 1.872 6.984 C1.872 6.984 1.71338 7.44469 1.56206 7.90537 C1.56206 7.90537 1.41075 8.36606 1.31738 8.748 C1.31738 8.748 1.224 9.12937 1.188 9.40331 C1.188 9.40331 1.152 9.67669 1.224 9.77737 C1.224 9.77737 1.28138 9.87806 1.41806 9.82069 C1.41806 9.82069 1.55475 9.76331 1.74206 9.59062 C1.74206 9.59062 1.92938 9.41737 2.14538 9.16537 C2.14538 9.16537 2.36138 8.91337 2.57738 8.62537 C2.57738 8.62537 3.08138 7.96331 3.672 7.07006 L3.78675 7.21406 C3.78675 7.21406 3.18206 8.12137 2.60606 8.856 C2.60606 8.856 2.36138 9.17269 2.10206 9.47531 C2.10206 9.47531 1.84275 9.77737 1.58344 10.0226 C1.58344 10.0226 1.32469 10.2673 1.09406 10.4259 C1.09406 10.4259 0.864 10.584 0.69075 10.6127 C0.69075 10.6127 0.36 10.656 0.18 10.4687 C0.18 10.4687 0 10.2814 0.0286875 9.72 C0.0286875 9.72 0.057375 9.15806 0.323438 8.16469 C0.323438 8.16469 0.590062 7.17131 1.16606 5.63006 L0.158063 7.344 L0.057375 7.18537 L0.057375 7.18537 Z M4.32 0.561375 C4.32 0.561375 4.32 0.806062 4.15406 0.972 C4.15406 0.972 3.98869 1.13737 3.744 1.13737 C3.744 1.13737 3.49875 1.13737 3.34013 0.972 C3.34013 0.972 3.18206 0.806062 3.18206 0.561375 C3.18206 0.561375 3.18206 0.331312 3.34013 0.165937 C3.34013 0.165937 3.49875 0 3.744 0 C3.744 0 3.98869 0 4.15406 0.165937 C4.15406 0.165937 4.32 0.331312 4.32 0.561375 Z" transform="translate(51.5212, 23.9819)"/>
   <path style="fill:#161413; fill-rule:evenodd;stroke:none;" id="Text5+4" d="M5.37131 3.42731 C5.37131 3.42731 4.85325 4.73738 4.47863 5.832 C4.47863 5.832 4.32 6.29269 4.176 6.75338 C4.176 6.75338 4.032 7.21406 3.93863 7.596 C3.93863 7.596 3.84525 7.97738 3.80925 8.25131 C3.80925 8.25131 3.77325 8.52469 3.84525 8.62538 C3.84525 8.62538 3.91725 8.75531 4.104 8.61863 C4.104 8.61863 4.29131 8.48138 4.52869 8.18663 C4.52869 8.18663 4.76663 7.89131 5.02594 7.51669 C5.02594 7.51669 5.28525 7.14206 5.49394 6.804 C5.49394 6.804 5.70263 6.46538 5.85394 6.21338 C5.85394 6.21338 6.00525 5.96138 6.01931 5.93269 C6.01931 5.93269 7.47395 3.6 9.15863 2.11669 C9.15863 2.11669 9.87863 1.48331 10.7139 0.971999 C10.7139 0.971999 11.5492 0.460688 12.4633 0.230625 C12.4633 0.230625 13.3779 0 14.3713 0.136688 C14.3713 0.136688 15.3653 0.273375 16.3873 0.921375 L16.3586 0.964687 C16.3586 0.964687 15.3939 0.388687 14.472 0.266625 C14.472 0.266625 13.5506 0.144 12.6793 0.338625 C12.6793 0.338625 11.808 0.532688 11.016 0.986624 C11.016 0.986624 10.224 1.44 9.5327 2.02331 C9.5327 2.02331 8.84195 2.60606 8.26595 3.24731 C8.26595 3.24731 7.68995 3.888 7.25064 4.45669 C7.25064 4.45669 6.81132 5.02538 6.52331 5.45738 C6.52331 5.45738 6.23531 5.88938 6.13463 6.06206 C6.13463 6.06206 5.60194 6.96937 5.08331 7.704 C5.08331 7.704 4.86731 8.02069 4.62263 8.32331 C4.62263 8.32331 4.37794 8.62538 4.14731 8.87063 C4.14731 8.87063 3.91725 9.11531 3.69394 9.27394 C3.69394 9.27394 3.47063 9.432 3.29794 9.46069 C3.29794 9.46069 3.08194 9.48938 2.92331 9.42469 C2.92331 9.42469 2.76525 9.36 2.69325 9.15131 C2.69325 9.15131 2.62125 8.94206 2.63531 8.58206 C2.63531 8.58206 2.64994 8.22206 2.76525 7.67531 C2.76525 7.67531 2.31862 8.46731 1.79269 8.964 C1.79269 8.964 1.26731 9.46069 0.806626 9.46069 C0.806626 9.46069 0.489938 9.46069 0.302625 9.22331 C0.302625 9.22331 0.115313 8.98538 0.0579375 8.57531 C0.0579375 8.57531 0 8.16469 0.0720001 7.61737 C0.0720001 7.61737 0.144 7.07006 0.36 6.43669 C0.36 6.43669 0.576 5.81737 0.878626 5.26331 C0.878626 5.26331 1.18125 4.70869 1.52663 4.30538 C1.52663 4.30538 1.872 3.90206 2.22469 3.66469 C2.22469 3.66469 2.57794 3.42731 2.88 3.42731 C2.88 3.42731 3.28331 3.42731 3.47738 3.80869 C3.47738 3.80869 3.672 4.19006 3.64331 4.83806 C3.64331 4.83806 3.77325 4.50731 3.90263 4.15462 C3.90263 4.15462 4.032 3.80138 4.19062 3.42731 L5.37131 3.42731 L5.37131 3.42731 Z M1.35394 9 C1.35394 9 1.48331 9 1.67063 8.86331 C1.67063 8.86331 1.85794 8.72606 2.06663 8.48869 C2.06663 8.48869 2.27531 8.25131 2.49131 7.92 C2.49131 7.92 2.70731 7.58869 2.89463 7.2 C2.89463 7.2 2.99531 6.81131 3.132 6.35063 C3.132 6.35063 3.26925 5.88938 3.47063 5.34206 C3.47063 5.34206 3.55725 4.69406 3.456 4.284 C3.456 4.284 3.35531 3.87337 3.11063 3.87337 C3.11063 3.87337 2.952 3.87337 2.75738 4.07531 C2.75738 4.07531 2.56331 4.27669 2.35462 4.62263 C2.35462 4.62263 2.14594 4.968 1.944 5.436 C1.944 5.436 1.74263 5.904 1.55531 6.43669 C1.55531 6.43669 1.368 6.96937 1.25269 7.43737 C1.25269 7.43737 1.13794 7.90537 1.10194 8.25131 C1.10194 8.25131 1.06594 8.59669 1.12331 8.79863 C1.12331 8.79863 1.18125 9 1.35394 9 Z" transform="translate(54.5879, 25.1339)"/>
   <path style="fill:#858788; fill-rule:evenodd;stroke:none;" id="Text7+0" d="M11.6859 18.835 C11.6859 18.835 12.3339 18.1221 13.2199 17.7331 C13.2199 17.7331 13.9759 17.4091 15.12 17.377 C15.12 17.377 16.265 17.3441 17.7989 18.036 C17.7989 18.036 19.3109 18.7481 20.3369 18.835 C20.3369 18.835 21.3629 18.9211 21.989 18.7481 C21.989 18.7481 22.7019 18.5321 23.1339 18.0571 L23.393 18.1221 C23.393 18.1221 22.8099 18.943 21.9029 19.3961 C21.9029 19.3961 21.5139 19.591 21.017 19.721 C21.017 19.721 20.52 19.8501 19.9041 19.872 C19.9041 19.872 19.289 19.8931 18.5541 19.753 C18.5541 19.753 17.82 19.6121 16.9779 19.267 C16.9779 19.267 16.1789 18.943 15.5739 18.7701 C15.5739 18.7701 14.969 18.5971 14.472 18.4891 C14.472 18.4891 15.2719 19.159 15.7579 20.4441 C15.7579 20.4441 16.2439 21.7291 16.265 23.263 C16.265 23.263 16.2869 24.7961 15.8009 26.4161 C15.8009 26.4161 15.3149 28.0361 14.202 29.3541 C14.202 29.3541 13.0899 30.672 11.297 31.5141 C11.297 31.5141 9.50399 32.3561 6.91199 32.3561 C6.91199 32.3561 5.14096 32.3561 3.90994 31.644 C3.90994 31.644 2.67891 30.931 1.944 29.743 C1.944 29.743 1.20994 28.555 0.982968 27.0219 C0.982968 27.0219 0.755999 25.488 1.00491 23.8359 C1.00491 23.8359 1.25297 22.183 1.998 20.5419 C1.998 20.5419 2.74388 18.9 3.95297 17.5171 C3.95297 17.5171 2.87297 17.0201 2.03006 16.2 C2.03006 16.2 1.188 15.379 0.701999 14.3859 C0.701999 14.3859 0.216 13.392 0.108 12.301 C0.108 12.301 0 11.2101 0.399938 10.1731 C0.399938 10.1731 0.799874 9.13613 1.73897 8.2291 C1.73897 8.2291 2.67891 7.32207 4.25588 6.67407 C4.25588 6.67407 5.57296 6.13406 6.68502 6.08006 C6.68502 6.08006 7.79793 6.02606 8.81296 6.264 C8.81296 6.264 9.11587 5.076 9.82799 3.942 C9.82799 3.942 10.541 2.808 11.6859 1.93303 C11.6859 1.93303 12.8309 1.05806 14.418 0.529031 C14.418 0.529031 16.0059 0 18.0799 0 C18.0799 0 20.0019 0 21.384 0.464062 C21.384 0.464062 22.7669 0.928126 23.652 1.674 C23.652 1.674 24.5379 2.41903 24.9269 3.36994 C24.9269 3.36994 25.3159 4.32 25.2619 5.30297 C25.2619 5.30297 25.2079 6.28509 24.7219 7.2031 C24.7219 7.2031 24.2359 8.1211 23.3609 8.8231 C23.3609 8.8231 22.4859 9.5251 21.222 9.91407 C21.222 9.91407 19.9589 10.303 18.36 10.2161 C18.36 10.2161 16.9999 10.1301 15.93 9.78498 C15.93 9.78498 14.861 9.43904 13.943 8.98595 C13.943 8.98595 13.025 8.53201 12.215 8.02407 C12.215 8.02407 11.405 7.51613 10.5629 7.12801 C10.5629 7.12801 10.433 8.29407 10.649 9.40698 C10.649 9.40698 10.865 10.519 11.459 11.383 C11.459 11.383 12.053 12.247 13.003 12.7761 C13.003 12.7761 13.9539 13.3051 15.293 13.3051 L15.3579 13.5 C15.3579 13.5 13.6299 13.5 12.1719 13.7919 C12.1719 13.7919 10.7139 14.083 9.50399 14.6019 C9.50399 14.6019 8.2949 15.12 7.31193 15.8541 C7.31193 15.8541 6.32896 16.5881 5.57296 17.4521 C5.57296 17.4521 6.52387 17.755 7.5929 17.6799 C7.5929 17.6799 8.66193 17.604 9.87187 17.0851 C9.87187 17.0851 10.9519 16.6101 11.7939 15.833 C11.7939 15.833 12.636 15.055 12.809 14.04 L12.8739 14.083 C12.8739 14.083 12.809 14.407 12.647 14.8281 C12.647 14.8281 12.485 15.2491 12.15 15.703 C12.15 15.703 11.8159 16.1561 11.2759 16.5991 C11.2759 16.5991 10.7359 17.0421 9.95793 17.4091 C9.95793 17.4091 8.68387 18.0141 7.4849 18.1221 C7.4849 18.1221 6.28593 18.2301 5.18399 17.9491 C5.18399 17.9491 4.12594 19.3101 3.54291 20.8761 C3.54291 20.8761 2.95988 22.4421 2.78691 23.9971 C2.78691 23.9971 2.61394 25.5521 2.82994 26.989 C2.82994 26.989 3.04594 28.4251 3.59691 29.527 C3.59691 29.527 4.14788 30.6281 5.00091 31.2981 C5.00091 31.2981 5.85393 31.968 6.95587 31.968 C6.95587 31.968 8.68387 31.9891 10.044 31.428 C10.044 31.428 11.405 30.8661 12.431 29.927 C12.431 29.927 13.457 28.987 14.1261 27.7881 C14.1261 27.7881 14.796 26.5891 15.1419 25.337 C15.1419 25.337 15.4879 24.084 15.509 22.8741 C15.509 22.8741 15.5309 21.6641 15.228 20.6921 C15.228 20.6921 14.9259 19.7201 14.3319 19.105 C14.3319 19.105 13.7379 18.4891 12.8309 18.4241 C12.8309 18.4241 12.528 18.4891 12.355 18.587 C12.355 18.587 12.1829 18.684 12.0749 18.792 C12.0749 18.792 11.945 18.9 11.88 19.0291 L11.6859 18.835 L11.6859 18.835 Z M18.3389 9.9571 C18.3389 9.9571 19.8939 9.9571 21.125 9.24498 C21.125 9.24498 22.356 8.53201 23.0799 7.46298 C23.0799 7.46298 23.8039 6.39309 23.976 5.14097 C23.976 5.14097 24.149 3.888 23.598 2.808 C23.598 2.808 23.0479 1.728 21.719 1.01503 C21.719 1.01503 20.3909 0.302062 18.144 0.302062 C18.144 0.302062 16.4379 0.302062 15.109 0.87497 C15.109 0.87497 13.781 1.44703 12.8301 2.376 C12.8301 2.376 11.88 3.30412 11.3181 4.49212 C11.3181 4.49212 10.757 5.68012 10.584 6.91201 C10.584 6.91201 11.4919 7.34401 12.3879 7.87304 C12.3879 7.87304 13.284 8.40207 14.213 8.85601 C14.213 8.85601 15.1419 9.3091 16.157 9.6331 C16.157 9.6331 17.172 9.9571 18.3389 9.9571 L18.3389 9.9571 Z M13.176 13.435 C13.176 13.435 11.837 13.435 10.8759 12.8301 C10.8759 12.8301 9.9149 12.2251 9.34199 11.2531 C9.34199 11.2531 8.76993 10.2811 8.6189 9.0391 C8.6189 9.0391 8.46786 7.7971 8.74799 6.5011 C8.74799 6.5011 7.84096 6.30703 6.76096 6.39394 C6.76096 6.39394 5.68096 6.48001 4.32 6.97613 C4.32 6.97613 3.15394 7.40813 2.45194 8.1751 C2.45194 8.1751 1.74994 8.94207 1.458 9.88201 C1.458 9.88201 1.16691 10.8211 1.242 11.8471 C1.242 11.8471 1.31794 12.8731 1.71703 13.8451 C1.71703 13.8451 2.11697 14.8171 2.81897 15.6381 C2.81897 15.6381 3.52097 16.459 4.44994 16.9771 C4.44994 16.9771 6.00496 15.4001 8.17593 14.418 C8.17593 14.418 10.3469 13.435 13.176 13.435 Z" transform="translate(65.251, 12.1684)"/>
   <path style="fill:#161413; fill-rule:evenodd;stroke:none;" id="Text8+0" d="M30.7586 18.5333 C30.7586 18.5333 29.7793 19.9733 28.62 21.0099 C28.62 21.0099 27.4607 22.0466 26.2294 22.7526 C26.2294 22.7526 24.9986 23.4579 23.7454 23.8826 C23.7454 23.8826 22.4927 24.3073 21.3407 24.5379 C21.3407 24.5379 18.6193 25.0706 15.8113 24.7826 L15.8687 24.6532 C15.8687 24.6532 16.704 24.7253 17.4741 24.7253 C17.4741 24.7253 18.2447 24.7253 18.9793 24.6673 L18.9647 24.6532 C18.9647 24.6532 19.1087 24.6532 19.2454 24.6459 C19.2454 24.6459 19.3826 24.6386 19.5266 24.624 C19.5266 24.624 19.656 24.6099 19.7854 24.6026 C19.7854 24.6026 19.9153 24.5953 20.0306 24.5666 C20.0306 24.5666 21.4273 24.3652 22.6367 23.6886 C22.6367 23.6886 23.8466 23.0113 24.8546 22.0033 C24.8546 22.0033 25.8626 20.9953 26.676 19.7139 C26.676 19.7139 27.4894 18.432 28.0868 17.0353 C28.0868 17.0353 28.6847 15.6386 29.0588 14.1846 C29.0588 14.1846 29.4334 12.7299 29.5701 11.3693 C29.5701 11.3693 29.7073 10.008 29.5993 8.81325 C29.5993 8.81325 29.4913 7.61794 29.1313 6.72525 C29.1313 6.72525 28.7713 5.832 28.1447 5.31394 C28.1447 5.31394 27.5186 4.79531 26.6113 4.79531 C26.6113 4.79531 25.632 4.79531 24.84 5.08331 C24.84 5.08331 24.048 5.37131 23.364 6.03394 C23.364 6.03394 22.68 6.696 22.0607 7.776 C22.0607 7.776 21.4414 8.856 20.7934 10.4259 L19.5266 13.8533 L19.2673 14.616 C19.2673 14.616 19.7567 14.832 20.0661 15.2572 C20.0661 15.2572 20.376 15.6819 20.484 16.2079 C20.484 16.2079 20.592 16.7333 20.4767 17.2879 C20.4767 17.2879 20.3614 17.8419 19.9941 18.3099 C19.9941 18.3099 19.6273 18.7779 18.9934 19.1019 C18.9934 19.1019 18.36 19.4259 17.4094 19.4692 C17.4094 19.4692 16.7614 20.8513 15.9767 21.9746 C15.9767 21.9746 15.192 23.0979 14.1193 23.8973 C14.1193 23.8973 13.0466 24.696 11.628 25.128 C11.628 25.128 10.2094 25.56 8.3087 25.56 C8.3087 25.56 6.10538 25.56 4.51406 24.9986 C4.51406 24.9986 2.92331 24.4373 1.91531 23.5159 C1.91531 23.5159 0.907313 22.5939 0.453375 21.4206 C0.453375 21.4206 0 20.2466 0.0579375 19.0153 C0.0579375 19.0153 0.115313 17.784 0.676689 16.6106 C0.676689 16.6106 1.23863 15.4372 2.25338 14.5159 C2.25338 14.5159 3.26869 13.5939 4.716 13.0326 C4.716 13.0326 6.16332 12.4706 8.00663 12.4706 C8.00663 12.4706 9.14401 12.4706 10.008 12.6726 C10.008 12.6726 10.872 12.8739 11.5054 13.2052 C11.5054 13.2052 11.6927 12.4419 12.24 11.6932 C12.24 11.6932 12.7873 10.944 13.5793 10.224 C13.5793 10.224 14.3713 9.504 15.3574 8.82 C15.3574 8.82 16.344 8.136 17.424 7.488 C17.424 7.488 18.504 6.84 19.62 6.228 C19.62 6.228 20.736 5.616 21.7873 5.04 C21.7873 5.04 22.392 3.83063 23.0327 2.78663 C23.0327 2.78663 23.6734 1.74263 24.3214 1.07325 C24.3214 1.07325 24.9694 0.403313 25.6028 0.201937 C25.6028 0.201937 26.2367 0 26.8127 0.475313 C26.8127 0.475313 27.288 0.864 27.1727 1.33931 C27.1727 1.33931 27.0574 1.81463 26.496 2.35463 C26.496 2.35463 25.9346 2.89462 25.0054 3.49931 C25.0054 3.49931 24.0767 4.104 22.9534 4.76663 C22.9534 4.76663 22.7087 5.37131 22.4494 6.03394 C22.4494 6.03394 22.1906 6.696 21.9167 7.43063 C21.9167 7.43063 22.2626 6.912 22.716 6.408 C22.716 6.408 23.1694 5.904 23.7381 5.508 C23.7381 5.508 24.3073 5.112 25.0127 4.86731 C25.0127 4.86731 25.7186 4.62263 26.5534 4.62263 C26.5534 4.62263 27.7633 4.62263 28.5981 5.29256 C28.5981 5.29256 29.4334 5.96194 29.9087 7.09256 C29.9087 7.09256 30.384 8.22263 30.5061 9.70594 C30.5061 9.70594 30.6287 11.1893 30.3981 12.8239 C30.3981 12.8239 30.168 14.4579 29.592 16.1212 C29.592 16.1212 29.016 17.784 28.1014 19.2746 C28.1014 19.2746 27.1873 20.7652 25.9273 21.9819 C25.9273 21.9819 24.6673 23.1986 23.0833 23.9186 C23.0833 23.9186 24.0913 23.6019 24.948 23.1986 C24.948 23.1986 25.8047 22.7953 26.5174 22.3493 C26.5174 22.3493 27.2306 21.9026 27.8066 21.4419 C27.8066 21.4419 28.3826 20.9812 28.8433 20.5493 C28.8433 20.5493 29.9087 19.5412 30.5854 18.4613 L30.7586 18.5333 L30.7586 18.5333 Z M9.8207 18.5619 C9.8207 18.5619 8.91339 18.5619 8.3807 18.3606 C8.3807 18.3606 7.84801 18.1586 7.59601 17.8566 C7.59601 17.8566 7.34401 17.5539 7.32207 17.1866 C7.32207 17.1866 7.3007 16.8193 7.42276 16.4886 C7.42276 16.4886 7.54539 16.1573 7.7687 15.9126 C7.7687 15.9126 7.99201 15.6673 8.20801 15.5953 L8.2367 15.6673 C8.2367 15.6673 8.04938 15.7252 7.86939 15.9339 C7.86939 15.9339 7.68939 16.1426 7.59601 16.4233 C7.59601 16.4233 7.50264 16.704 7.53864 17.0139 C7.53864 17.0139 7.57464 17.3233 7.82664 17.5826 C7.82664 17.5826 8.07863 17.8419 8.58264 18.0146 C8.58264 18.0146 9.08663 18.1873 9.93601 18.1873 C9.93601 18.1873 10.6706 18.1873 11.2607 17.9139 C11.2607 17.9139 11.8513 17.64 12.24 17.208 C12.24 17.208 11.7793 16.5746 11.5487 15.7033 C11.5487 15.7033 11.3186 14.832 11.4334 13.6372 L11.4767 13.3779 C11.4767 13.3779 10.8866 13.032 10.0294 12.8233 C10.0294 12.8233 9.1727 12.6146 8.00663 12.6146 C8.00663 12.6146 6.2207 12.6146 4.86675 13.1619 C4.86675 13.1619 3.51337 13.7093 2.59875 14.6093 C2.59875 14.6093 1.68469 15.5093 1.21669 16.6539 C1.21669 16.6539 0.748689 17.7986 0.748689 18.9939 C0.748689 18.9939 0.748689 20.1893 1.20938 21.3339 C1.20938 21.3339 1.67063 22.4786 2.61338 23.3786 C2.61338 23.3786 3.55669 24.2786 4.98206 24.8259 C4.98206 24.8259 6.40801 25.3733 8.33738 25.3733 C8.33738 25.3733 9.93601 25.3733 11.1094 25.0059 C11.1094 25.0059 12.2833 24.6386 13.1901 23.8899 C13.1901 23.8899 14.0974 23.1412 14.8101 22.0253 C14.8101 22.0253 15.5233 20.9093 16.1713 19.3973 C16.1713 19.3973 15.84 19.3393 15.3861 19.2246 C15.3861 19.2246 14.9327 19.1093 14.436 18.9006 C14.436 18.9006 13.9393 18.6913 13.4421 18.3746 C13.4421 18.3746 12.9454 18.0579 12.528 17.5826 C12.528 17.5826 12.0814 18.0292 11.4047 18.2959 C11.4047 18.2959 10.728 18.5619 9.8207 18.5619 L9.8207 18.5619 Z M12.816 17.2659 C12.816 17.2659 13.1614 17.7986 13.6147 18.1659 C13.6147 18.1659 14.0687 18.5333 14.5367 18.7706 C14.5367 18.7706 15.0047 19.008 15.444 19.1379 C15.444 19.1379 15.8833 19.2673 16.2146 19.3253 C16.2146 19.3253 16.632 18.3313 17.0781 17.1579 C17.0781 17.1579 17.5247 15.984 18.0146 14.6306 C18.0146 14.6306 17.3087 14.6593 16.848 14.9186 C16.848 14.9186 16.3873 15.1779 16.0993 15.4946 C16.0993 15.4946 15.768 15.8693 15.5807 16.3153 L15.5233 16.2866 C15.5233 16.2866 15.6673 15.8259 15.9986 15.4513 C15.9986 15.4513 16.2866 15.12 16.7687 14.832 C16.7687 14.832 17.2513 14.544 18.0574 14.472 L18.5186 13.2052 C18.5186 13.2052 18.7054 12.6292 19.008 11.7726 C19.008 11.7726 19.3106 10.9153 19.692 9.90056 C19.692 9.90056 20.0734 8.88525 20.5341 7.78388 C20.5341 7.78388 20.9953 6.68194 21.5134 5.616 C21.5134 5.616 20.4913 6.20663 19.4327 6.82594 C19.4327 6.82594 18.3746 7.44525 17.3666 8.09325 C17.3666 8.09325 16.3586 8.74125 15.4654 9.41794 C15.4654 9.41794 14.5727 10.0946 13.8741 10.7859 C13.8741 10.7859 13.176 11.4773 12.7294 12.1899 C12.7294 12.1899 12.2833 12.9026 12.1826 13.6226 C12.1826 13.6226 12.672 14.0113 12.9454 14.4793 C12.9454 14.4793 13.2193 14.9473 13.2913 15.4299 C13.2913 15.4299 13.3633 15.912 13.2407 16.3873 C13.2407 16.3873 13.1186 16.8626 12.816 17.2659 L12.816 17.2659 Z M26.7407 0.74925 C26.7407 0.74925 26.3233 0.302625 25.9127 0.35325 C25.9127 0.35325 25.5026 0.403313 25.0633 0.878625 C25.0633 0.878625 24.624 1.35394 24.156 2.21794 C24.156 2.21794 23.688 3.08194 23.1694 4.27725 C23.1694 4.27725 24.1346 3.744 24.9266 3.24731 C24.9266 3.24731 25.7186 2.75062 26.2226 2.30456 C26.2226 2.30456 26.7266 1.85794 26.8847 1.46925 C26.8847 1.46925 27.0433 1.08 26.7407 0.74925 L26.7407 0.74925 Z M17.4527 19.3539 C17.4527 19.3539 18.2306 19.2532 18.7706 18.9366 C18.7706 18.9366 19.3106 18.6193 19.6273 18.1873 C19.6273 18.1873 19.944 17.7553 20.0593 17.2586 C20.0593 17.2586 20.1746 16.7619 20.1026 16.2939 C20.1026 16.2939 20.0306 15.8259 19.8 15.4446 C19.8 15.4446 19.5694 15.0626 19.1807 14.8466 C19.1807 14.8466 18.7633 16.0706 18.3381 17.2013 C18.3381 17.2013 17.9134 18.3313 17.4527 19.3539 L17.4527 19.3539 Z M12.1534 13.8673 C12.1534 13.8673 12.0527 14.7892 12.168 15.5019 C12.168 15.5019 12.2833 16.2146 12.5426 16.776 C12.5426 16.776 12.7294 16.4453 12.816 16.0706 C12.816 16.0706 12.9026 15.696 12.8666 15.3146 C12.8666 15.3146 12.8306 14.9333 12.6506 14.5659 C12.6506 14.5659 12.4706 14.1986 12.1534 13.8673 Z" transform="translate(85.1642, 12.9368)"/>
   <path style="fill:#161413; fill-rule:evenodd;stroke:none;" id="Text8+1" d="M5.37131 0 C5.37131 0 4.85325 1.31006 4.47863 2.40469 C4.47863 2.40469 4.32 2.86537 4.176 3.32606 C4.176 3.32606 4.032 3.78675 3.93863 4.16869 C3.93863 4.16869 3.84525 4.55006 3.80925 4.824 C3.80925 4.824 3.77325 5.09737 3.84525 5.19806 C3.84525 5.19806 3.90263 5.29875 4.032 5.24137 C4.032 5.24137 4.16194 5.184 4.32 5.01131 C4.32 5.01131 4.47863 4.83806 4.67269 4.58606 C4.67269 4.58606 4.86731 4.33406 5.05463 4.04606 C5.05463 4.04606 5.50125 3.384 6.01931 2.49075 L6.13462 2.63475 C6.13462 2.63475 5.60194 3.54206 5.08331 4.27669 C5.08331 4.27669 4.86731 4.59337 4.62263 4.896 C4.62263 4.896 4.37794 5.19806 4.14731 5.44331 C4.14731 5.44331 3.91725 5.688 3.69394 5.84662 C3.69394 5.84662 3.47063 6.00469 3.29794 6.03337 C3.29794 6.03337 3.08194 6.06206 2.92331 5.99738 C2.92331 5.99738 2.76525 5.93269 2.69325 5.724 C2.69325 5.724 2.62125 5.51475 2.63531 5.15475 C2.63531 5.15475 2.64994 4.79475 2.76525 4.248 C2.76525 4.248 2.31862 5.04 1.79269 5.53669 C1.79269 5.53669 1.26731 6.03337 0.806624 6.03337 C0.806624 6.03337 0.489938 6.03337 0.302625 5.796 C0.302625 5.796 0.115313 5.55806 0.0579375 5.148 C0.0579375 5.148 0 4.73737 0.0719999 4.19006 C0.0719999 4.19006 0.144 3.64275 0.36 3.00937 C0.36 3.00937 0.576 2.39006 0.878624 1.836 C0.878624 1.836 1.18125 1.28137 1.52663 0.878062 C1.52663 0.878062 1.872 0.47475 2.22469 0.237375 C2.22469 0.237375 2.57794 0 2.88 0 C2.88 0 3.28331 0 3.47738 0.381375 C3.47738 0.381375 3.672 0.76275 3.64331 1.41075 C3.64331 1.41075 3.77325 1.08 3.90263 0.727312 C3.90263 0.727312 4.032 0.374062 4.19062 0 L5.37131 0 L5.37131 0 Z M1.35394 5.57269 C1.35394 5.57269 1.48331 5.57269 1.67063 5.436 C1.67063 5.436 1.85794 5.29875 2.06663 5.06137 C2.06663 5.06137 2.27531 4.824 2.49131 4.49269 C2.49131 4.49269 2.70731 4.16137 2.89463 3.77269 C2.89463 3.77269 2.99531 3.384 3.132 2.92331 C3.132 2.92331 3.26925 2.46206 3.47063 1.91475 C3.47063 1.91475 3.55725 1.26675 3.456 0.856687 C3.456 0.856687 3.35531 0.446062 3.11063 0.446062 C3.11063 0.446062 2.952 0.446062 2.75738 0.648 C2.75738 0.648 2.56331 0.849375 2.35462 1.19531 C2.35462 1.19531 2.14594 1.54069 1.944 2.00869 C1.944 2.00869 1.74263 2.47669 1.55531 3.00937 C1.55531 3.00937 1.368 3.54206 1.25269 4.01006 C1.25269 4.01006 1.13794 4.47806 1.10194 4.824 C1.10194 4.824 1.06594 5.16937 1.12331 5.37131 C1.12331 5.37131 1.18125 5.57269 1.35394 5.57269 Z" transform="translate(114.67, 29.5981)"/>
   <path style="fill:#161413; fill-rule:evenodd;stroke:none;" id="Text8+2" d="M1.16663 6.03337 L0 6.03337 L2.07394 0 L3.25462 0 L2.67863 1.656 C2.67863 1.656 3.13931 0.921375 3.672 0.460687 C3.672 0.460687 4.20469 0 4.65131 0 C4.65131 0 4.95394 0 5.184 0.129375 C5.184 0.129375 5.41463 0.25875 5.50069 0.590062 C5.50069 0.590062 5.58731 0.921375 5.50069 1.512 C5.50069 1.512 5.41463 2.10206 5.09794 3.00937 C5.09794 3.00937 5.02594 3.24 4.896 3.564 C4.896 3.564 4.76663 3.888 4.66538 4.212 C4.66538 4.212 4.56469 4.536 4.536 4.81669 C4.536 4.81669 4.50731 5.09737 4.62263 5.24137 C4.62263 5.24137 4.68 5.31337 4.80938 5.23406 C4.80938 5.23406 4.93931 5.15475 5.10469 4.97475 C5.10469 4.97475 5.27062 4.79475 5.45737 4.54275 C5.45737 4.54275 5.64469 4.29075 5.84663 4.01737 C5.84663 4.01737 6.29269 3.36937 6.82594 2.49075 L6.94069 2.63475 C6.94069 2.63475 6.37931 3.6 5.81794 4.34869 C5.81794 4.34869 5.57269 4.66537 5.32069 4.97531 C5.32069 4.97531 5.06869 5.28469 4.81669 5.52262 C4.81669 5.52262 4.56469 5.76 4.32731 5.904 C4.32731 5.904 4.08994 6.048 3.888 6.048 C3.888 6.048 3.68662 6.048 3.57863 5.91862 C3.57863 5.91862 3.47063 5.78869 3.43463 5.58 C3.43463 5.58 3.39863 5.37075 3.42 5.09737 C3.42 5.09737 3.44194 4.824 3.49931 4.536 C3.49931 4.536 3.61463 3.85875 3.90263 3.00937 C3.90263 3.00937 4.08994 2.47669 4.20469 2.00869 C4.20469 2.00869 4.32 1.54069 4.356 1.19531 C4.356 1.19531 4.392 0.849375 4.33406 0.648 C4.33406 0.648 4.27669 0.446062 4.104 0.446062 C4.104 0.446062 3.97463 0.446062 3.77269 0.590062 C3.77269 0.590062 3.57131 0.734062 3.34069 0.986062 C3.34069 0.986062 3.11063 1.23806 2.88 1.59131 C2.88 1.59131 2.64994 1.944 2.448 2.34675 L1.16663 6.03337 Z" transform="translate(119.422, 29.5981)"/>
   <path style="fill:#161413; fill-rule:evenodd;stroke:none;" id="Text8+3" d="M0.057375 7.18537 L1.584 4.57931 L2.76469 4.57931 C2.76469 4.57931 2.24606 5.88937 1.872 6.984 C1.872 6.984 1.71338 7.44469 1.56206 7.90537 C1.56206 7.90537 1.41075 8.36606 1.31738 8.748 C1.31738 8.748 1.224 9.12937 1.188 9.40331 C1.188 9.40331 1.152 9.67669 1.224 9.77737 C1.224 9.77737 1.28138 9.87806 1.41806 9.82069 C1.41806 9.82069 1.55475 9.76331 1.74206 9.59062 C1.74206 9.59062 1.92938 9.41737 2.14538 9.16537 C2.14538 9.16537 2.36138 8.91337 2.57738 8.62537 C2.57738 8.62537 3.08138 7.96331 3.672 7.07006 L3.78675 7.21406 C3.78675 7.21406 3.18206 8.12137 2.60606 8.856 C2.60606 8.856 2.36138 9.17269 2.10206 9.47531 C2.10206 9.47531 1.84275 9.77737 1.58344 10.0226 C1.58344 10.0226 1.32469 10.2673 1.09406 10.4259 C1.09406 10.4259 0.864 10.584 0.69075 10.6127 C0.69075 10.6127 0.36 10.656 0.18 10.4687 C0.18 10.4687 0 10.2814 0.0286875 9.72 C0.0286875 9.72 0.057375 9.15806 0.323438 8.16469 C0.323438 8.16469 0.590062 7.17131 1.16606 5.63006 L0.158063 7.344 L0.057375 7.18537 L0.057375 7.18537 Z M4.32 0.561375 C4.32 0.561375 4.32 0.806062 4.15406 0.972 C4.15406 0.972 3.98869 1.13737 3.744 1.13737 C3.744 1.13737 3.49875 1.13737 3.34013 0.972 C3.34013 0.972 3.18206 0.806062 3.18206 0.561375 C3.18206 0.561375 3.18206 0.331312 3.34013 0.165937 C3.34013 0.165937 3.49875 0 3.744 0 C3.744 0 3.98869 0 4.15406 0.165937 C4.15406 0.165937 4.32 0.331312 4.32 0.561375 Z" transform="translate(126.118, 25.0187)"/>
   <path style="fill:#161413; fill-rule:evenodd;stroke:none;" id="Text8+4" d="M4.06069 0.201938 C4.06069 0.201938 4.464 0.388688 4.50731 0.763312 C4.50731 0.763312 4.55063 1.13794 4.34869 1.58456 C4.34869 1.58456 4.14731 2.03063 3.77269 2.46263 C3.77269 2.46263 3.39863 2.89463 2.95931 3.18994 C2.95931 3.18994 2.52 3.48469 2.088 3.57131 C2.088 3.57131 1.656 3.65794 1.33931 3.39863 C1.33931 3.39863 1.20938 3.85931 1.14469 4.284 C1.14469 4.284 1.08 4.70869 1.12331 5.04 C1.12331 5.04 1.16663 5.37131 1.31738 5.57325 C1.31738 5.57325 1.46869 5.77463 1.75669 5.78869 C1.75669 5.78869 1.97269 5.80331 2.23875 5.65931 C2.23875 5.65931 2.50538 5.51531 2.79338 5.27794 C2.79338 5.27794 3.08137 5.04 3.36938 4.73063 C3.36938 4.73063 3.65738 4.42069 3.93131 4.08994 C3.93131 4.08994 4.56469 3.32662 5.24137 2.34731 L5.35669 2.46263 C5.35669 2.46263 4.42069 3.888 3.528 4.824 C3.528 4.824 3.13931 5.22731 2.72869 5.55131 C2.72869 5.55131 2.31862 5.87531 1.908 6.04125 C1.908 6.04125 1.49737 6.20662 1.12275 6.14925 C1.12275 6.14925 0.748688 6.09131 0.432 5.71669 C0.432 5.71669 0.0286875 5.24194 0.014625 4.59394 C0.014625 4.59394 0 3.94594 0.252 3.26194 C0.252 3.26194 0.504 2.57794 0.957375 1.93725 C0.957375 1.93725 1.41131 1.296 1.95131 0.842624 C1.95131 0.842624 2.49131 0.388688 3.04537 0.194625 C3.04537 0.194625 3.6 0 4.06069 0.201938 L4.06069 0.201938 Z M3.58537 0.302625 C3.58537 0.302625 3.32662 0.230625 3.024 0.453938 C3.024 0.453938 2.72138 0.676687 2.42606 1.08731 C2.42606 1.08731 2.13131 1.49794 1.872 2.04525 C1.872 2.04525 1.61269 2.592 1.42538 3.15394 C1.42538 3.15394 1.67063 3.456 2.00138 3.37725 C2.00138 3.37725 2.33269 3.29794 2.65669 3.00994 C2.65669 3.00994 2.98069 2.72194 3.26138 2.28994 C3.26138 2.28994 3.54263 1.85794 3.70069 1.44056 C3.70069 1.44056 3.85931 1.02263 3.84469 0.705937 C3.84469 0.705937 3.83062 0.388688 3.58537 0.302625 Z" transform="translate(129.199, 29.4681)"/>
   <path style="fill:#161413; fill-rule:evenodd;stroke:none;" id="Text8+5" d="M1.78538 15.9407 C1.78538 15.9407 1.512 16.6466 1.35338 17.2226 C1.35338 17.2226 1.28138 17.4673 1.23806 17.712 C1.23806 17.712 1.19475 17.9567 1.18013 18.1586 C1.18013 18.1586 1.16606 18.36 1.20206 18.4967 C1.20206 18.4967 1.23806 18.6334 1.35338 18.6767 C1.35338 18.6767 1.52606 18.7487 1.83544 18.468 C1.83544 18.468 2.14538 18.1873 2.48344 17.7626 C2.48344 17.7626 2.82206 17.3374 3.12413 16.8913 C3.12413 16.8913 3.42675 16.4447 3.6 16.1713 C3.6 16.1713 5.09738 13.8527 6.81074 12.3986 C6.81074 12.3986 7.54537 11.7793 8.38743 11.2826 C8.38743 11.2826 9.23005 10.7854 10.1587 10.5767 C10.1587 10.5767 11.088 10.368 12.0741 10.5193 C12.0741 10.5193 13.0607 10.6706 14.0687 11.3473 L14.04 11.376 C14.04 11.376 13.104 10.7854 12.1967 10.6346 C12.1967 10.6346 11.2894 10.4833 10.4394 10.6419 C10.4394 10.6419 9.59005 10.8 8.80536 11.2106 C8.80536 11.2106 8.02068 11.6207 7.32937 12.1539 C7.32937 12.1539 6.63805 12.6866 6.05474 13.2913 C6.05474 13.2913 5.472 13.896 5.02538 14.4433 C5.02538 14.4433 4.57875 14.9906 4.27613 15.4299 C4.27613 15.4299 3.97406 15.8687 3.85875 16.056 C3.85875 16.056 3.19669 17.064 2.71406 17.7193 C2.71406 17.7193 2.232 18.3746 1.84275 18.7492 C1.84275 18.7492 1.45406 19.1233 1.12275 19.2746 C1.12275 19.2746 0.791999 19.4254 0.432 19.4254 C0.432 19.4254 0.25875 19.4254 0.158062 19.3106 C0.158062 19.3106 0.0573749 19.1953 0.0286875 19.0012 C0.0286875 19.0012 0 18.8066 0.021375 18.5546 C0.021375 18.5546 0.04275 18.3026 0.0860624 18.0433 C0.0860624 18.0433 0.201375 17.4386 0.460688 16.6607 C0.460688 16.6607 0.820687 15.624 1.28869 14.3353 C1.28869 14.3353 1.75669 13.0466 2.28206 11.6426 C2.28206 11.6426 2.808 10.2386 3.384 8.79862 C3.384 8.79862 3.96 7.35861 4.536 6.03393 C4.536 6.03393 5.112 4.70868 5.68068 3.564 C5.68068 3.564 6.24937 2.41931 6.76068 1.61325 C6.76068 1.61325 7.27199 0.806624 7.70399 0.403312 C7.70399 0.403312 8.13599 0 8.46674 0.158625 C8.46674 0.158625 8.89874 0.36 8.84811 1.08731 C8.84811 1.08731 8.79805 1.81462 8.40205 2.88 C8.40205 2.88 8.00605 3.94536 7.33612 5.27736 C7.33612 5.27736 6.66674 6.60937 5.87474 8.02068 C5.87474 8.02068 5.08275 9.43199 4.22606 10.836 C4.22606 10.836 3.36938 12.24 2.60606 13.4494 C2.60606 13.4494 2.376 14.112 2.17406 14.7386 C2.17406 14.7386 1.97269 15.3647 1.78538 15.9407 L1.78538 15.9407 Z M8.40937 0.475311 C8.40937 0.475311 8.16468 0.316687 7.78274 0.777936 C7.78274 0.777936 7.40137 1.23862 6.94068 2.13131 C6.94068 2.13131 6.47999 3.024 5.95405 4.26261 C5.95405 4.26261 5.42869 5.50068 4.89544 6.92661 C4.89544 6.92661 4.36275 8.35199 3.83006 9.86399 C3.83006 9.86399 3.29738 11.376 2.82206 12.8014 C2.82206 12.8014 3.55669 11.6207 4.34869 10.296 C4.34869 10.296 5.14069 8.9713 5.86068 7.66799 C5.86068 7.66799 6.58068 6.36468 7.18537 5.14799 C7.18537 5.14799 7.79005 3.9313 8.16412 2.95931 C8.16412 2.95931 8.53874 1.98731 8.62537 1.32525 C8.62537 1.32525 8.71199 0.662624 8.40937 0.475311 Z" transform="translate(133.476, 16.1914)"/>
  </g>
 </g>
</svg>
